<svg width="43" height="43" viewBox="0 0 43 43" fill="none" xmlns="http://www.w3.org/2000/svg">
<circle cx="21.5" cy="21.5" r="20" fill="white" stroke="#474C55" stroke-width="3"/>
<path d="M21.2048 1L23.2788 3.06298C27.9637 7.72316 27.6401 15.3991 22.5795 19.6484V19.6484C21.6661 20.4154 20.8436 21.2847 20.1282 22.2392L19.9385 22.4923C15.8539 27.9421 15.9738 35.465 20.2298 40.782L21.2048 42" stroke="#474C55" stroke-width="2"/>
<path d="M16.2973 9.46776L16.4697 9.58536L16.6748 9.62415L18.8678 10.0389L19.2825 12.2319L19.3213 12.437L19.4389 12.6094L20.6963 14.4533L19.4389 16.2973L19.3213 16.4697L19.2825 16.6748L18.8678 18.8678L16.6748 19.2825L16.4697 19.3213L16.2973 19.4389L14.4533 20.6963L12.6094 19.4389L12.437 19.3213L12.2319 19.2825L10.0389 18.8678L9.62415 16.6748L9.58536 16.4697L9.46776 16.2973L8.21037 14.4533L9.46776 12.6094L9.58536 12.437L9.62415 12.2319L10.0389 10.0389L12.2319 9.62415L12.437 9.58536L12.6094 9.46776L14.4533 8.21037L16.2973 9.46776Z" fill="white" stroke="#474C55" stroke-width="2"/>
<circle cx="14.4533" cy="14.4533" r="4.69961" fill="white" stroke="#474C55" stroke-width="2"/>
<mask id="path-5-inside-1_82_533" fill="white">
<path fill-rule="evenodd" clip-rule="evenodd" d="M22.1435 31.7638C26.8476 31.7638 30.661 27.9504 30.661 23.2463C30.661 21.7 30.2489 20.25 29.5286 19C31.8715 20.2461 33.4667 22.7123 33.4667 25.5511C33.4667 29.6464 30.1468 32.9663 26.0515 32.9663C24.5564 32.9663 23.1646 32.5238 22 31.7626C22.0477 31.7634 22.0956 31.7638 22.1435 31.7638Z"/>
</mask>
<path fill-rule="evenodd" clip-rule="evenodd" d="M22.1435 31.7638C26.8476 31.7638 30.661 27.9504 30.661 23.2463C30.661 21.7 30.2489 20.25 29.5286 19C31.8715 20.2461 33.4667 22.7123 33.4667 25.5511C33.4667 29.6464 30.1468 32.9663 26.0515 32.9663C24.5564 32.9663 23.1646 32.5238 22 31.7626C22.0477 31.7634 22.0956 31.7638 22.1435 31.7638Z" fill="white"/>
<path d="M29.5286 19L30.4678 17.2342L24.3181 13.9633L27.7957 19.9985L29.5286 19ZM22 31.7626L22.033 29.7629L15.1097 29.6485L20.9058 33.4367L22 31.7626ZM28.661 23.2463C28.661 26.8458 25.743 29.7638 22.1435 29.7638V33.7638C27.9521 33.7638 32.661 29.055 32.661 23.2463H28.661ZM27.7957 19.9985C28.3457 20.953 28.661 22.0598 28.661 23.2463H32.661C32.661 21.3403 32.1521 19.547 31.2615 18.0015L27.7957 19.9985ZM28.5895 20.7658C30.3055 21.6785 31.4667 23.4807 31.4667 25.5511H35.4667C35.4667 21.9439 33.4375 18.8138 30.4678 17.2342L28.5895 20.7658ZM31.4667 25.5511C31.4667 28.5418 29.0422 30.9663 26.0515 30.9663V34.9663C31.2513 34.9663 35.4667 30.7509 35.4667 25.5511H31.4667ZM26.0515 30.9663C24.9567 30.9663 23.9434 30.6435 23.0942 30.0885L20.9058 33.4367C22.3858 34.404 24.156 34.9663 26.0515 34.9663V30.9663ZM22.1435 29.7638C22.1066 29.7638 22.0698 29.7635 22.033 29.7629L21.967 33.7623C22.0257 33.7633 22.0846 33.7638 22.1435 33.7638V29.7638Z" fill="#474C55" mask="url(#path-5-inside-1_82_533)"/>
</svg>
